<?xml version="1.0" encoding="UTF-8"?>
<svg id="Layer_2" data-name="Layer 2" xmlns="http://www.w3.org/2000/svg" viewBox="0 0 1141.56 297.85">
  <defs>
    <style>
      .cls-1 {
        fill: #fff;
      }

      .cls-2 {
        fill: #231f20;
      }
    </style>
  </defs>
  <g id="Layer_2-2" data-name="Layer 2">
    <g>
      <path class="cls-1" d="m345.5,44.09c5.55-.91,13.82-1.59,23-1.59,11.33,0,19.26,1.7,24.7,6,4.53,3.63,7.02,8.95,7.02,15.98,0,9.74-6.91,16.43-13.48,18.81v.34c5.33,2.15,8.27,7.25,10.2,14.28,2.38,8.61,4.76,18.58,6.23,21.53h-17.67c-1.25-2.15-3.06-8.38-5.32-17.79-2.04-9.52-5.33-12.12-12.35-12.24h-5.21v30.02h-17.11V44.09Zm17.11,32.86h6.8c8.61,0,13.71-4.31,13.71-10.99,0-7.02-4.76-10.54-12.69-10.65-4.19,0-6.57.34-7.82.57v21.07Z"/>
      <path class="cls-1" d="m482.14,81.14c0,25.61-16.88,39.54-37.39,39.54-21.98,0-36.03-15.98-36.03-38.86s15.07-39.99,37.5-39.99,35.92,16.99,35.92,39.31Zm-55.18.23c0,14.28,6.57,25.61,18.47,25.61s18.47-11.78,18.47-25.61c0-12.92-5.67-25.83-18.35-25.83s-18.58,11.67-18.58,25.83Z"/>
      <path class="cls-1" d="m493.47,44.09c4.53-.91,13.71-1.59,22.32-1.59,10.54,0,17,1.02,22.55,4.3,5.33,2.83,9.18,8.04,9.18,14.96s-3.97,13.14-12.58,16.32v.23c8.72,2.38,15.18,8.95,15.18,18.81,0,6.91-3.17,12.35-7.93,16.2-5.55,4.42-14.84,6.91-30.02,6.91-8.5,0-14.84-.57-18.69-1.13V44.09Zm17.11,29.23h5.66c9.06,0,13.94-3.74,13.94-9.4s-4.42-8.84-12.24-8.84c-3.74,0-5.89.23-7.36.45v17.79Zm0,33.88c1.7.23,3.74.23,6.68.23,7.82,0,14.73-3.06,14.73-10.99s-6.91-10.76-15.52-10.76h-5.89v21.53Z"/>
      <path class="cls-1" d="m631.81,81.14c0,25.61-16.88,39.54-37.39,39.54-21.98,0-36.03-15.98-36.03-38.86s15.07-39.99,37.5-39.99,35.92,16.99,35.92,39.31Zm-55.18.23c0,14.28,6.57,25.61,18.47,25.61s18.47-11.78,18.47-25.61c0-12.92-5.67-25.83-18.35-25.83s-18.58,11.67-18.58,25.83Z"/>
      <path class="cls-1" d="m654.7,57.58h-20.51v-14.5h58.69v14.5h-20.85v61.86h-17.33v-61.86Z"/>
      <path class="cls-1" d="m719.39,43.07v76.36h-17.33V43.07h17.33Z"/>
      <path class="cls-1" d="m790.43,117.28c-3.17,1.59-10.31,3.4-19.6,3.4-26.4,0-40-16.54-40-38.3,0-26.06,18.58-40.45,41.69-40.45,8.95,0,15.75,1.7,18.81,3.29l-3.51,13.71c-3.51-1.47-8.38-2.83-14.5-2.83-13.71,0-24.36,8.27-24.36,25.27,0,15.3,9.06,24.93,24.47,24.93,5.21,0,10.99-1.13,14.39-2.49l2.61,13.48Z"/>
      <path class="cls-1" d="m802.33,101.65c4.65,2.38,11.78,4.76,19.15,4.76,7.93,0,12.12-3.29,12.12-8.27s-3.63-7.48-12.8-10.76c-12.69-4.42-20.96-11.44-20.96-22.55,0-13.03,10.88-22.89,28.89-22.89,8.61,0,14.95,1.7,19.49,3.74l-3.85,13.94c-3.06-1.47-8.5-3.63-15.98-3.63s-11.1,3.4-11.1,7.36c0,4.87,4.31,7.02,14.16,10.76,13.48,4.99,19.83,12.01,19.83,22.77,0,12.8-9.86,23.79-30.82,23.79-8.72,0-17.34-2.38-21.64-4.76l3.51-14.28Z"/>
      <path class="cls-1" d="m941.92,117.28c-3.17,1.59-10.31,3.4-19.6,3.4-26.4,0-40-16.54-40-38.3,0-26.06,18.58-40.45,41.69-40.45,8.95,0,15.75,1.7,18.81,3.29l-3.51,13.71c-3.51-1.47-8.38-2.83-14.5-2.83-13.71,0-24.36,8.27-24.36,25.27,0,15.3,9.06,24.93,24.47,24.93,5.21,0,10.99-1.13,14.39-2.49l2.61,13.48Z"/>
      <path class="cls-1" d="m953.25,43.07h17.33v61.86h30.36v14.5h-47.7V43.07Z"/>
      <path class="cls-1" d="m1024.85,43.07v44.19c0,13.03,4.98,19.6,13.82,19.6s14.05-6.23,14.05-19.6v-44.19h17.22v43.05c0,23.57-11.9,34.56-31.84,34.56s-30.59-10.42-30.59-34.78v-42.83h17.33Z"/>
      <path class="cls-1" d="m1084.91,44.09c4.53-.91,13.71-1.59,22.32-1.59,10.54,0,17,1.02,22.55,4.3,5.33,2.83,9.18,8.04,9.18,14.96s-3.97,13.14-12.58,16.32v.23c8.72,2.38,15.18,8.95,15.18,18.81,0,6.91-3.17,12.35-7.93,16.2-5.55,4.42-14.84,6.91-30.02,6.91-8.5,0-14.84-.57-18.69-1.13V44.09Zm17.11,29.23h5.67c9.06,0,13.94-3.74,13.94-9.4s-4.42-8.84-12.24-8.84c-3.74,0-5.89.23-7.36.45v17.79Zm0,33.88c1.7.23,3.74.23,6.69.23,7.82,0,14.73-3.06,14.73-10.99s-6.91-10.76-15.52-10.76h-5.89v21.53Z"/>
      <path class="cls-1" d="m349.12,156.48h-10.26v-7.25h29.35v7.25h-10.43v30.94h-8.67v-30.94Z"/>
      <path class="cls-1" d="m372.8,149.74c2.78-.45,6.91-.79,11.5-.79,5.67,0,9.63.85,12.35,3,2.27,1.81,3.51,4.48,3.51,7.99,0,4.87-3.46,8.22-6.74,9.41v.17c2.66,1.08,4.14,3.63,5.1,7.14,1.19,4.31,2.38,9.29,3.12,10.76h-8.84c-.62-1.08-1.53-4.19-2.66-8.9-1.02-4.76-2.66-6.06-6.18-6.12h-2.61v15.01h-8.56v-37.68Zm8.56,16.43h3.4c4.31,0,6.86-2.15,6.86-5.5,0-3.51-2.38-5.27-6.35-5.33-2.1,0-3.29.17-3.91.28v10.54Z"/>
      <path class="cls-1" d="m415.06,149.23v38.19h-8.67v-38.19h8.67Z"/>
      <path class="cls-1" d="m422.54,149.74c2.27-.45,6.86-.79,11.16-.79,5.27,0,8.5.51,11.28,2.15,2.66,1.42,4.59,4.02,4.59,7.48s-1.98,6.57-6.29,8.16v.11c4.36,1.19,7.59,4.48,7.59,9.4,0,3.46-1.59,6.18-3.97,8.1-2.78,2.21-7.42,3.46-15.01,3.46-4.25,0-7.42-.28-9.35-.57v-37.51Zm8.56,14.62h2.83c4.53,0,6.97-1.87,6.97-4.7s-2.21-4.42-6.12-4.42c-1.87,0-2.95.11-3.68.23v8.9Zm0,16.94c.85.11,1.87.11,3.34.11,3.91,0,7.37-1.53,7.37-5.5s-3.46-5.38-7.76-5.38h-2.95v10.76Z"/>
      <path class="cls-1" d="m465.43,149.23v14.67h14.22v-14.67h8.61v38.19h-8.61v-15.98h-14.22v15.98h-8.67v-38.19h8.67Z"/>
      <path class="cls-1" d="m504.4,149.23v22.1c0,6.52,2.49,9.8,6.91,9.8s7.03-3.12,7.03-9.8v-22.1h8.61v21.53c0,11.78-5.95,17.28-15.92,17.28s-15.3-5.21-15.3-17.39v-21.42h8.67Z"/>
      <path class="cls-1" d="m575.95,177.65l-2.72,9.8h-8.95l11.67-38.19h11.33l11.84,38.19h-9.29l-2.95-9.8h-10.93Zm9.69-6.46l-2.38-8.1c-.68-2.27-1.36-5.1-1.93-7.36h-.11c-.57,2.27-1.13,5.16-1.76,7.36l-2.27,8.1h8.44Z"/>
      <path class="cls-1" d="m604.22,187.45v-38.19h10.09l7.93,13.99c2.27,4.02,4.53,8.78,6.23,13.09h.17c-.57-5.04-.74-10.2-.74-15.98v-11.11h7.93v38.19h-9.07l-8.16-14.73c-2.27-4.08-4.76-9.01-6.63-13.48l-.17.06c.23,5.04.34,10.42.34,16.66v11.5h-7.93Z"/>
      <path class="cls-1" d="m663.37,149.26v22.1c0,6.52,2.49,9.8,6.91,9.8s7.03-3.12,7.03-9.8v-22.1h8.61v21.53c0,11.78-5.95,17.28-15.92,17.28s-15.3-5.21-15.3-17.39v-21.42h8.67Z"/>
      <path class="cls-1" d="m693.39,187.45v-38.19h10.09l7.93,13.99c2.27,4.02,4.53,8.78,6.23,13.09h.17c-.57-5.04-.74-10.2-.74-15.98v-11.11h7.93v38.19h-9.07l-8.16-14.73c-2.27-4.08-4.76-9.01-6.63-13.48l-.17.06c.23,5.04.34,10.42.34,16.66v11.5h-7.93Z"/>
      <path class="cls-1" d="m741.15,149.26v38.19h-8.67v-38.19h8.67Z"/>
      <path class="cls-1" d="m757.63,187.45l-12.24-38.19h9.46l4.65,16.15c1.3,4.53,2.49,8.9,3.4,13.65h.17c.96-4.59,2.15-9.12,3.46-13.48l4.87-16.32h9.18l-12.86,38.19h-10.09Z"/>
      <path class="cls-1" d="m807.37,171.3h-14.05v9.07h15.69v7.08h-24.36v-38.19h23.57v7.08h-14.9v7.93h14.05v7.03Z"/>
      <path class="cls-1" d="m814.91,149.77c2.78-.45,6.91-.79,11.5-.79,5.67,0,9.63.85,12.35,3,2.27,1.81,3.51,4.48,3.51,7.99,0,4.87-3.46,8.22-6.74,9.41v.17c2.66,1.08,4.14,3.63,5.1,7.14,1.19,4.31,2.38,9.29,3.12,10.76h-8.84c-.62-1.08-1.53-4.19-2.66-8.9-1.02-4.76-2.66-6.06-6.18-6.12h-2.61v15.01h-8.56v-37.68Zm8.56,16.43h3.4c4.31,0,6.86-2.15,6.86-5.5,0-3.51-2.38-5.27-6.34-5.33-2.1,0-3.29.17-3.91.28v10.54Z"/>
      <path class="cls-1" d="m848.78,178.55c2.32,1.19,5.89,2.38,9.58,2.38,3.97,0,6.06-1.64,6.06-4.14s-1.81-3.74-6.4-5.38c-6.35-2.21-10.48-5.72-10.48-11.28,0-6.52,5.44-11.44,14.45-11.44,4.31,0,7.48.85,9.75,1.87l-1.93,6.97c-1.53-.74-4.25-1.81-7.99-1.81s-5.55,1.7-5.55,3.68c0,2.44,2.15,3.51,7.08,5.38,6.74,2.49,9.91,6.01,9.91,11.39,0,6.4-4.93,11.9-15.41,11.9-4.36,0-8.67-1.19-10.82-2.38l1.76-7.14Z"/>
      <path class="cls-1" d="m887.76,149.26v38.19h-8.67v-38.19h8.67Z"/>
      <path class="cls-1" d="m902.6,156.51h-10.26v-7.25h29.35v7.25h-10.42v30.94h-8.67v-30.94Z"/>
      <path class="cls-1" d="m935.52,187.45v-15.64l-12.07-22.55h9.86l3.91,9.18c1.19,2.78,1.98,4.82,2.95,7.31h.11c.85-2.38,1.76-4.59,2.89-7.31l3.85-9.18h9.69l-12.58,22.27v15.92h-8.61Z"/>
      <path class="cls-1" d="m341.76,217.72c2.66-.45,6.52-.79,11.67-.79s9.12,1.02,11.67,3.06c2.44,1.93,4.08,5.1,4.08,8.84s-1.25,6.97-3.51,9.06c-2.95,2.78-7.31,4.08-12.35,4.08-1.19,0-2.21-.11-3-.17v13.6h-8.56v-37.68Zm8.56,17.4c.62.11,1.64.17,2.89.17,4.59,0,7.42-2.32,7.42-6.18,0-3.57-2.38-5.67-6.86-5.67-1.7,0-2.83.17-3.46.28v11.39Z"/>
      <path class="cls-1" d="m383.28,217.22v22.1c0,6.52,2.49,9.8,6.91,9.8s7.03-3.12,7.03-9.8v-22.1h8.61v21.53c0,11.78-5.95,17.28-15.92,17.28s-15.3-5.21-15.3-17.39v-21.42h8.67Z"/>
      <path class="cls-1" d="m413.31,217.22h8.67v30.93h15.18v7.25h-23.85v-38.19Z"/>
      <path class="cls-1" d="m468.15,254.33c-1.59.79-5.16,1.7-9.8,1.7-13.2,0-20-8.27-20-19.15,0-13.03,9.29-20.23,20.85-20.23,4.48,0,7.88.85,9.41,1.64l-1.76,6.86c-1.76-.74-4.19-1.42-7.25-1.42-6.86,0-12.18,4.14-12.18,12.63,0,7.65,4.53,12.46,12.24,12.46,2.61,0,5.5-.57,7.2-1.25l1.3,6.74Z"/>
      <path class="cls-1" d="m482.48,217.22v14.67h14.22v-14.67h8.61v38.19h-8.61v-15.98h-14.22v15.98h-8.67v-38.19h8.67Z"/>
      <path class="cls-1" d="m547.8,236.25c0,12.81-8.44,19.77-18.7,19.77-10.99,0-18.02-7.99-18.02-19.43s7.54-20,18.75-20,17.96,8.5,17.96,19.66Zm-27.59.11c0,7.14,3.29,12.81,9.23,12.81s9.24-5.89,9.24-12.81c0-6.46-2.83-12.92-9.18-12.92s-9.29,5.84-9.29,12.92Z"/>
      <path class="cls-1" d="m559.19,255.4l-9.01-38.19h9.24l2.89,15.69c.85,4.59,1.64,9.52,2.27,13.37h.11c.57-4.14,1.53-8.73,2.49-13.43l3.23-15.64h9.18l3.06,16.09c.85,4.48,1.47,8.56,2.04,12.81h.11c.57-4.25,1.42-8.72,2.21-13.26l3.12-15.64h8.78l-9.86,38.19h-9.35l-3.23-16.43c-.74-3.8-1.36-7.42-1.81-11.78h-.11c-.68,4.31-1.3,7.93-2.21,11.78l-3.63,16.43h-9.52Z"/>
      <path class="cls-1" d="m603.37,217.22h8.56v16.88h.17c.85-1.47,1.76-2.83,2.61-4.19l8.67-12.69h10.6l-12.64,16.26,13.31,21.93h-10.09l-9.35-16.49-3.29,4.02v12.46h-8.56v-38.19Z"/>
      <path class="cls-1" d="m677.65,254.33c-1.59.79-5.16,1.7-9.8,1.7-13.2,0-20-8.27-20-19.15,0-13.03,9.29-20.23,20.85-20.23,4.48,0,7.88.85,9.4,1.64l-1.76,6.86c-1.76-.74-4.19-1.42-7.25-1.42-6.86,0-12.18,4.14-12.18,12.63,0,7.65,4.53,12.46,12.24,12.46,2.61,0,5.5-.57,7.2-1.25l1.3,6.74Z"/>
      <path class="cls-1" d="m692.77,245.6l-2.72,9.8h-8.95l11.67-38.19h11.33l11.84,38.19h-9.29l-2.95-9.8h-10.93Zm9.69-6.46l-2.38-8.1c-.68-2.27-1.36-5.1-1.93-7.37h-.11c-.57,2.27-1.13,5.16-1.76,7.37l-2.27,8.1h8.44Z"/>
      <path class="cls-1" d="m753.33,240.78c-.17-4.59-.34-10.14-.34-15.69h-.17c-1.19,4.87-2.83,10.43-4.25,14.84l-4.65,14.84h-6.8l-4.02-14.73c-1.25-4.53-2.55-9.97-3.46-14.96h-.11c-.23,5.16-.4,11.05-.68,15.81l-.68,14.5h-7.99l2.44-38.19h11.5l3.74,12.75c1.25,4.36,2.38,9.35,3.23,13.83h.17c1.08-4.42,2.32-9.63,3.63-13.88l4.08-12.69h11.27l2.1,38.19h-8.44l-.57-14.62Z"/>
      <path class="cls-1" d="m768.96,217.72c2.66-.45,6.52-.79,11.67-.79s9.12,1.02,11.67,3.06c2.44,1.93,4.08,5.1,4.08,8.84s-1.25,6.97-3.51,9.06c-2.95,2.78-7.31,4.08-12.35,4.08-1.19,0-2.21-.11-3-.17v13.6h-8.56v-37.68Zm8.56,17.4c.62.11,1.64.17,2.89.17,4.59,0,7.42-2.32,7.42-6.18,0-3.57-2.38-5.67-6.86-5.67-1.7,0-2.83.17-3.46.28v11.39Z"/>
      <path class="cls-1" d="m810.49,217.22v22.1c0,6.52,2.49,9.8,6.91,9.8s7.03-3.12,7.03-9.8v-22.1h8.61v21.53c0,11.78-5.95,17.28-15.92,17.28s-15.3-5.21-15.3-17.39v-21.42h8.67Z"/>
      <path class="cls-1" d="m840.8,246.51c2.32,1.19,5.89,2.38,9.58,2.38,3.97,0,6.06-1.64,6.06-4.13s-1.81-3.74-6.4-5.38c-6.35-2.21-10.48-5.72-10.48-11.27,0-6.52,5.44-11.45,14.45-11.45,4.31,0,7.48.85,9.75,1.87l-1.93,6.97c-1.53-.74-4.25-1.81-7.99-1.81s-5.55,1.7-5.55,3.68c0,2.44,2.15,3.51,7.08,5.38,6.74,2.49,9.91,6,9.91,11.39,0,6.4-4.93,11.9-15.41,11.9-4.36,0-8.67-1.19-10.82-2.38l1.76-7.14Z"/>
      <path class="cls-1" d="m309.45,146.2c-.92-8.05-2.49-15.91-4.66-23.52l15.45-6.4-12.93-31.21-15.46,6.4c-3.91-7.01-8.37-13.67-13.34-19.92l11.84-11.84-23.88-23.89-11.85,11.85c-6.25-4.97-12.91-9.43-19.92-13.34l6.4-15.45-31.21-12.93-6.4,15.44c-7.61-2.16-15.47-3.73-23.52-4.66V0h-33.78v16.74c-8.05.92-15.92,2.49-23.52,4.66l-6.4-15.44-31.21,12.93,6.4,15.45c-7.01,3.91-13.67,8.37-19.92,13.34l-11.85-11.85-23.89,23.89,11.85,11.85c-4.97,6.25-9.43,12.91-13.34,19.92l-15.46-6.4-12.93,31.21,15.44,6.4c-2.16,7.61-3.73,15.46-4.66,23.52H0v33.79h64.8c-.04-.19-.07-.39-.11-.59-.55-2.64-1-5.32-1.34-8.03-.02-.17-.03-.35-.05-.52-.14-1.18-.27-2.37-.37-3.57-.11-1.39-.2-2.78-.26-4.19-.03-.69-.06-1.39-.07-2.09.1-5.04.57-9.98,1.39-14.81.31-1.83.66-3.64,1.07-5.43,2.55-11.23,6.97-21.75,12.93-31.2h0c.98-1.56,2.01-3.1,3.07-4.6,6.56-9.24,14.65-17.33,23.89-23.89,1.5-1.06,3.04-2.1,4.6-3.08,9.45-5.96,19.97-10.39,31.2-12.93,1.79-.41,3.61-.77,5.43-1.08,5.49-.93,11.13-1.41,16.89-1.41s11.4.49,16.89,1.41c1.83.31,3.64.67,5.43,1.08,11.23,2.54,21.75,6.97,31.2,12.93,1.56.98,3.1,2.02,4.6,3.08,9.24,6.56,17.32,14.64,23.89,23.88,1.06,1.5,2.09,3.04,3.07,4.6h0c4.86,7.71,8.7,16.14,11.34,25.08.51,2.05.97,4.13,1.35,6.23.32,1.76.6,3.54.82,5.32.53,4.17.8,8.42.8,12.74,0,1.39-.03,2.78-.09,4.16-.06,1.4-.14,2.8-.26,4.19-.1,1.2-.23,2.39-.37,3.57-.02.17-.03.34-.05.51-.34,2.71-.79,5.39-1.34,8.03-.04.19-.07.39-.11.59h65.91v-33.79h-16.74Z"/>
      <g>
        <path class="cls-1" d="m74.05,179.04c-.29-.09-.6-.14-.92-.14-.96,0-1.81.42-2.39,1.09h6.61c-.58-.67-1.44-1.09-2.39-1.09-.32,0-.63.05-.92.14Z"/>
        <path class="cls-1" d="m250,179.99h4.77c-.57-.67-1.43-1.09-2.39-1.09s-1.81.42-2.39,1.09Z"/>
        <rect class="cls-1" x="160.67" y="205.67" width="3.74" height="70.89"/>
        <rect class="cls-1" x="106.57" y="276.27" width="110.56" height="4.26"/>
        <path class="cls-1" d="m78.15,182.08c0,1.76-1.43,3.18-3.18,3.18-.32,0-.63-.05-.92-.14-1.1-.33-1.94-1.24-2.18-2.37-.01-.05-.02-.09-.02-.14-.04-.17-.05-.35-.05-.53,0-.8.3-1.53.79-2.09.38-.44.89-.78,1.46-.95.29-.09.6-.14.92-.14.95,0,1.81.42,2.39,1.09.08.08.14.16.2.25.37.52.59,1.15.59,1.84Z"/>
        <rect class="cls-1" x="73.13" y="178.78" width="52.44" height="6.59"/>
        <rect class="cls-1" x="78.78" y="191.49" width="46.8" height="6.59"/>
        <rect class="cls-1" x="88.02" y="204.28" width="37.55" height="6.59"/>
        <rect class="cls-1" x="105.31" y="217.15" width="19.01" height="6.59"/>
        <path class="cls-1" d="m81.33,194.79c0,1.76-1.42,3.18-3.18,3.18s-3.18-1.42-3.18-3.18,1.42-3.18,3.18-3.18,3.18,1.42,3.18,3.18Z"/>
        <path class="cls-1" d="m91.2,207.58c0,1.75-1.42,3.18-3.18,3.18s-3.18-1.42-3.18-3.18,1.42-3.18,3.18-3.18,3.18,1.42,3.18,3.18Z"/>
        <circle class="cls-1" cx="105.31" cy="220.44" r="3.18"/>
        <path class="cls-1" d="m76.31,182.08c0,1.44-.96,2.65-2.26,3.04-.29.09-.6.14-.92.14-1.22,0-2.27-.68-2.81-1.69-.05-.09-.09-.18-.13-.27-.16-.38-.24-.79-.24-1.21,0-.8.29-1.53.79-2.09.57-.67,1.43-1.09,2.39-1.09.32,0,.63.05.92.14.58.17,1.09.51,1.47.95.23.26.41.55.55.87.16.38.24.79.24,1.22Z"/>
        <g>
          <path class="cls-1" d="m34.25,206.42c-.41,2.63-2.67,4.65-5.42,4.65-3.04,0-5.5-2.46-5.5-5.5s2.46-5.51,5.5-5.51c.84,0,1.62.2,2.34.54l7.26-3.85c-2.39-2.6-5.8-4.23-9.6-4.23-7.21,0-13.05,5.84-13.05,13.05s5.84,13.05,13.05,13.05,13.05-5.84,13.05-13.05c0-1.03-.13-2.04-.36-3l-7.27,3.85Z"/>
          <path class="cls-1" d="m74.67,184.99l-3.09-5.82-33.16,17.58c1.49,1.62,2.57,3.61,3.09,5.82l33.15-17.58Z"/>
          <path class="cls-1" d="m34.34,205.57c0,.29-.04.57-.09.85l7.27-3.85c-.52-2.21-1.6-4.2-3.09-5.82l-7.26,3.85c1.87.88,3.17,2.77,3.17,4.97Z"/>
        </g>
        <rect class="cls-1" x="199.95" y="178.78" width="52.44" height="6.59"/>
        <rect class="cls-1" x="199.95" y="191.49" width="46.8" height="6.59"/>
        <rect class="cls-1" x="199.95" y="204.28" width="37.55" height="6.59"/>
        <rect class="cls-1" x="201.2" y="217.15" width="19.01" height="6.59"/>
        <path class="cls-1" d="m244.2,194.79c0,1.76,1.42,3.18,3.18,3.18s3.18-1.42,3.18-3.18-1.42-3.18-3.18-3.18-3.18,1.42-3.18,3.18Z"/>
        <path class="cls-1" d="m234.32,207.58c0,1.75,1.42,3.18,3.18,3.18s3.18-1.42,3.18-3.18-1.42-3.18-3.18-3.18-3.18,1.42-3.18,3.18Z"/>
        <circle class="cls-1" cx="220.21" cy="220.44" r="3.18"/>
        <path class="cls-1" d="m255.57,182.08c0,.34-.05.67-.16.98-.06.18-.13.35-.22.51-.53,1.01-1.59,1.69-2.81,1.69-1.76,0-3.18-1.42-3.18-3.18,0-.52.13-1.01.35-1.45.12-.23.26-.45.44-.64.57-.67,1.43-1.09,2.39-1.09s1.81.42,2.39,1.09c.49.56.79,1.29.79,2.09Z"/>
        <rect class="cls-1" x="271.25" y="168.75" width="6.59" height="50.14" transform="translate(-25.3 345.6) rotate(-62.07)"/>
        <g>
          <path class="cls-1" d="m52.55,230.85l28.74-33.93-5.03-4.26-28.74,33.93c2.02.97,3.75,2.44,5.03,4.26Z"/>
          <path class="cls-1" d="m47.24,237.12c.09.4.15.8.15,1.23,0,3.04-2.46,5.5-5.5,5.5s-5.5-2.47-5.5-5.5,2.46-5.51,5.5-5.51c.11,0,.21.03.32.03l5.32-6.28c-1.71-.82-3.62-1.29-5.64-1.29-7.21,0-13.05,5.84-13.05,13.05s5.84,13.05,13.05,13.05,13.05-5.84,13.05-13.05c0-2.79-.89-5.38-2.38-7.5l-5.31,6.27Z"/>
          <path class="cls-1" d="m47.24,237.12l5.31-6.27c-1.28-1.82-3.01-3.29-5.03-4.26l-5.32,6.28c2.47.14,4.5,1.9,5.04,4.25Z"/>
        </g>
        <g>
          <path class="cls-1" d="m91.01,208.95l-5.99-2.75-20.84,45.4c2.25.39,4.3,1.35,5.99,2.74l20.83-45.39Z"/>
          <path class="cls-1" d="m70.18,254.34l-3.44,7.49c.42.78.68,1.66.68,2.61,0,3.04-2.46,5.5-5.51,5.5s-5.5-2.46-5.5-5.5c0-2.64,1.86-4.85,4.35-5.38l3.42-7.46c-.74-.13-1.49-.21-2.27-.21-7.21,0-13.05,5.84-13.05,13.05s5.84,13.05,13.05,13.05,13.05-5.84,13.05-13.05c0-4.07-1.87-7.71-4.79-10.1Z"/>
          <path class="cls-1" d="m61.92,258.94c2.09,0,3.89,1.18,4.82,2.9l3.44-7.49c-1.69-1.39-3.75-2.35-5.99-2.74l-3.42,7.46c.37-.08.76-.13,1.16-.13Z"/>
        </g>
        <path class="cls-1" d="m88.02,271.33c-7.21,0-13.05,5.84-13.05,13.05s5.84,13.05,13.05,13.05,13.05-5.84,13.05-13.05-5.84-13.05-13.05-13.05Zm0,18.55c-3.04,0-5.5-2.46-5.5-5.5s2.46-5.51,5.5-5.51,5.5,2.46,5.5,5.51-2.46,5.5-5.5,5.5Z"/>
        <path class="cls-1" d="m237.5,271.76c-7.21,0-13.05,5.84-13.05,13.05s5.84,13.05,13.05,13.05,13.05-5.84,13.05-13.05-5.84-13.05-13.05-13.05Zm0,17.65c-3.04,0-5.5-2.46-5.5-5.5s2.46-5.51,5.5-5.51,5.5,2.46,5.5,5.51-2.46,5.5-5.5,5.5Z"/>
        <g>
          <path class="cls-1" d="m240.5,206.2l-5.99,2.75,20.56,44.81c1.66-1.44,3.68-2.47,5.91-2.93l-20.48-44.62Z"/>
          <path class="cls-1" d="m263.61,250.56c-.9,0-1.78.09-2.63.27l3.38,7.36c2.68.37,4.75,2.65,4.75,5.43,0,3.04-2.46,5.5-5.5,5.5s-5.5-2.46-5.5-5.5c0-.79.17-1.54.48-2.22l-3.5-7.63c-2.76,2.39-4.51,5.92-4.51,9.85,0,7.21,5.84,13.05,13.05,13.05s13.05-5.84,13.05-13.05-5.84-13.05-13.05-13.05Z"/>
          <path class="cls-1" d="m263.6,258.11c.26,0,.5.04.75.08l-3.38-7.36c-2.23.46-4.25,1.49-5.91,2.93l3.5,7.63c.86-1.93,2.78-3.28,5.03-3.28Z"/>
        </g>
        <path class="cls-1" d="m283.64,225.3c-7.21,0-13.05,5.84-13.05,13.05s5.84,13.05,13.05,13.05,13.05-5.84,13.05-13.05-5.84-13.05-13.05-13.05Zm0,18.55c-3.04,0-5.5-2.47-5.5-5.5s2.46-5.51,5.5-5.51,5.51,2.46,5.51,5.51-2.47,5.5-5.51,5.5Z"/>
        <path class="cls-1" d="m301.65,194.53c-7.21,0-13.05,5.84-13.05,13.05s5.84,13.05,13.05,13.05,13.05-5.84,13.05-13.05-5.84-13.05-13.05-13.05Zm0,18.55c-3.04,0-5.5-2.46-5.5-5.5s2.46-5.51,5.5-5.51,5.5,2.46,5.5,5.51-2.47,5.5-5.5,5.5Z"/>
        <path class="cls-1" d="m88.02,278.87c1.76,0,3.32.84,4.32,2.14l16.15-59.71-6.36-1.72-16.14,59.69c.63-.25,1.31-.4,2.03-.4Z"/>
        <path class="cls-1" d="m237.5,278.4c.67,0,1.3.14,1.89.35l-16-59.17-6.36,1.72,16.05,59.35c1-1.36,2.6-2.25,4.42-2.25Z"/>
        <path class="cls-1" d="m283.32,232.87l-34.06-40.22-5.03,4.26,34.05,40.2c.54-2.35,2.57-4.1,5.04-4.25Z"/>
      </g>
      <path class="cls-1" d="m169.74,88.27c0,3.97-3.22,7.2-7.2,7.2s-7.2-3.22-7.2-7.2h-14.95v141.35h44.3V88.27h-14.95Z"/>
      <g>
        <path class="cls-2" d="m164.42,102.22v-1.41h-4.82v8.85h4.82v-1.41h-3.29v-2.46h3.14v-1.38h-3.14v-2.2h3.29Z"/>
        <path class="cls-2" d="m164.54,119.93c-.11-.27-.26-.49-.45-.69-.18-.2-.4-.36-.63-.5-.23-.13-.48-.25-.72-.36,0,0-.02,0-.03,0-.21-.09-.41-.17-.6-.25-.03-.01-.06-.02-.09-.04-.23-.09-.45-.19-.63-.3-.19-.11-.33-.23-.45-.36-.11-.14-.17-.3-.17-.48,0-.15.03-.28.08-.41.05-.12.14-.23.26-.31.05-.04.11-.07.18-.1.08-.04.17-.07.27-.09.18-.05.41-.07.67-.07.15,0,.31,0,.48.03.17.02.33.05.5.08.14.03.28.06.41.1.02,0,.04.01.07.02.15.04.3.09.43.15v-1.53c-.13-.04-.27-.07-.43-.11-.16-.03-.32-.06-.49-.08-.17-.03-.34-.05-.51-.06-.17-.02-.34-.02-.5-.02-.55,0-1.01.07-1.39.21-.02,0-.05.02-.07.03-.35.13-.64.31-.87.53-.24.23-.42.5-.54.81-.11.31-.17.64-.17.99,0,.38.06.71.17.98.11.27.26.5.44.69.18.2.4.36.63.49.23.13.47.25.72.35.24.1.48.2.72.29.08.03.16.06.23.09.15.06.28.13.4.21.18.11.33.25.44.39.11.15.17.33.17.55,0,.16-.03.3-.09.43-.06.13-.15.24-.28.34-.13.09-.29.17-.49.22-.2.06-.44.08-.73.08-.11,0-.23,0-.35-.01-.08,0-.17-.02-.24-.03-.21-.03-.41-.07-.62-.11-.21-.05-.41-.1-.62-.16-.2-.06-.4-.13-.59-.2v1.65c.39.13.77.22,1.16.27.1.01.2.03.3.04.3.03.61.04.92.04.48,0,.91-.06,1.31-.17.4-.11.74-.28,1.04-.52.09-.07.17-.15.25-.23.17-.19.32-.4.43-.65.16-.36.24-.78.24-1.26,0-.36-.06-.67-.17-.94Z"/>
        <path class="cls-2" d="m158.95,128.56v1.39h2.19v7.47h1.54v-7.47h2.19v-1.39h-5.93Z"/>
        <path class="cls-2" d="m165.02,146.22c0-.12-.01-.23-.02-.34h0c-.04-.4-.1-.75-.19-1.07-.08-.3-.19-.57-.33-.81-.1-.19-.22-.37-.36-.53-.31-.35-.69-.61-1.15-.78-.46-.17-1-.25-1.61-.25h-2.37v8.85h2.04c.71,0,1.31-.11,1.82-.32.51-.22.92-.52,1.25-.92.32-.4.56-.87.72-1.43.16-.56.23-1.18.23-1.87,0-.18,0-.36-.01-.53Zm-2.18,2.94c-.38.49-.95.73-1.69.73h-.66v-6.06h.76c.41,0,.76.07,1.04.2.28.13.49.32.66.59,0,0,0,0,0,0,.09.15.17.32.24.5.05.14.08.29.11.45.04.2.07.41.08.64.01.2.02.41.02.64,0,1.04-.19,1.81-.58,2.3Z"/>
        <path class="cls-2" d="m162.93,163.62c-.06-.15-.13-.28-.23-.39-.04-.04-.08-.08-.13-.12-.07-.06-.14-.1-.22-.14-.14-.06-.28-.1-.44-.1s-.3.03-.43.1c-.08.04-.16.08-.22.14-.05.03-.09.08-.13.12-.1.11-.18.24-.24.39-.06.15-.08.31-.08.48s.03.33.08.48c.06.15.14.28.24.39.1.11.22.2.35.26.13.07.27.09.43.09s.3-.03.44-.09c.13-.06.25-.15.35-.26.1-.11.17-.24.23-.39.06-.15.09-.31.09-.48s-.03-.32-.09-.48Zm0-4.66c-.06-.15-.13-.28-.23-.39-.1-.11-.22-.2-.35-.26-.14-.07-.28-.09-.44-.09s-.3.03-.43.09c-.14.06-.25.15-.35.26-.1.11-.18.24-.24.39-.06.15-.08.31-.08.48s.03.33.08.48c.06.15.14.28.24.38.1.11.22.19.35.26.13.06.27.09.43.09s.3-.03.44-.09c.13-.07.25-.15.35-.26.1-.11.17-.24.23-.38.06-.15.09-.31.09-.48s-.03-.32-.09-.48Z"/>
        <path class="cls-2" d="m161.32,177.52l1.16-1.23c.31-.32.58-.63.82-.91.24-.29.44-.58.6-.87.17-.29.29-.59.38-.89.08-.31.13-.64.13-.99,0-.42-.06-.8-.19-1.13-.12-.32-.3-.59-.53-.81-.23-.22-.5-.38-.82-.49-.32-.11-.67-.17-1.06-.17-.51,0-.98.11-1.41.32-.44.22-.83.5-1.17.86l.79,1.12c.25-.25.5-.45.77-.61.27-.15.57-.23.88-.23.18,0,.35.03.49.1.14.07.26.16.35.26.09.11.16.24.22.4.05.15.07.31.07.48,0,.2-.02.4-.06.59-.03.19-.11.4-.23.62-.12.23-.28.48-.5.76-.21.28-.5.62-.85,1.02l-1.9,2.09v1.22h5.44v-1.53h-3.38Z"/>
        <path class="cls-2" d="m164.81,186.38c-.13-.48-.29-.89-.5-1.22-.04-.07-.08-.13-.12-.19-.27-.36-.59-.63-.96-.8-.37-.17-.78-.26-1.22-.26-.51,0-.96.1-1.36.31-.2.1-.39.24-.56.39-.17.15-.32.32-.45.51-.27.39-.49.88-.63,1.45-.15.58-.22,1.22-.22,1.96s.07,1.4.2,1.95c0,.04.02.08.03.11.15.57.36,1.05.63,1.41.27.37.59.64.96.81.37.17.78.26,1.22.26.51,0,.97-.1,1.36-.31.39-.21.73-.51,1.01-.9.28-.4.49-.88.63-1.46.07-.28.12-.57.16-.88.04-.33.06-.69.06-1.07,0-.8-.08-1.49-.23-2.06Zm-4.5,2.58c0-.08,0-.16,0-.24v-.25c0-.55.04-1.03.12-1.43.08-.41.2-.74.34-1,.09-.17.2-.32.32-.43.06-.06.13-.12.2-.16.2-.13.41-.19.64-.19.32,0,.6.1.83.32.18.17.33.39.46.69.04.1.08.2.11.31l-.71.56-1.34,1.07-.96.76Zm3.22-.7c0,.08,0,.16,0,.24,0,.55-.04,1.02-.12,1.43-.08.4-.19.74-.34,1-.15.26-.32.46-.52.59-.2.13-.41.2-.64.2-.32,0-.59-.11-.82-.32-.24-.21-.42-.54-.56-.97l2.98-2.38h0s0,0,0,0c0,.07,0,.14,0,.21Z"/>
        <path class="cls-2" d="m164.98,201.19h0c-.04-.34-.09-.65-.17-.93-.15-.57-.36-1.05-.63-1.41-.27-.37-.59-.63-.96-.81-.37-.17-.78-.25-1.22-.25-.51,0-.96.1-1.36.31-.4.21-.74.51-1.01.9-.13.18-.24.38-.34.6-.12.26-.22.54-.29.85-.15.57-.22,1.22-.22,1.95,0,.8.07,1.49.23,2.06.15.57.36,1.04.63,1.41.12.17.25.31.4.43.17.16.36.28.56.38.37.17.78.25,1.22.25.17,0,.34-.01.5-.03.11-.02.21-.04.31-.06.2-.06.38-.12.55-.21.22-.11.41-.25.59-.42.15-.14.29-.3.41-.48.28-.4.49-.88.63-1.46.14-.57.21-1.22.21-1.95,0-.41-.02-.79-.06-1.13Zm-1.45.96c0,.08,0,.16,0,.23,0,.55-.04,1.02-.12,1.43-.08.4-.19.74-.34,1-.15.27-.32.46-.52.59-.2.13-.41.2-.64.2-.04,0-.09,0-.13,0-.26-.03-.49-.13-.69-.32-.24-.21-.42-.54-.56-.97l.54-.43,2.45-1.95c0,.07,0,.15,0,.23Zm-3.11-1.22c.08-.4.2-.74.34-1s.32-.47.51-.59c.2-.13.41-.19.64-.19.32,0,.6.11.83.32.24.22.42.55.56.99l-2.75,2.2-.25.2c0-.08,0-.17,0-.24v-.25c0-.11,0-.21,0-.32h0c0-.42.05-.8.11-1.11Z"/>
        <path class="cls-2" d="m162.97,219.19v-7.44h-1.26l-1.46.85-.21.12-.88.51.38,1.06.11.29.39-.24,1.39-.85v5.69h-2.04v1.47h5.33v-1.47h-1.76Z"/>
      </g>
      <g>
        <g>
          <path class="cls-1" d="m197.01,95.46c0,2.5-1.95,4.55-4.42,4.7-.09,0-.19,0-.29,0-2.6,0-4.71-2.11-4.71-4.71s2.1-4.71,4.71-4.71c.1,0,.2,0,.29,0,2.46.15,4.42,2.2,4.42,4.7Z"/>
          <rect class="cls-1" x="187.6" y="90.76" width="5" height="9.41"/>
        </g>
        <g>
          <path class="cls-1" d="m197.01,108.17c0,2.5-1.95,4.55-4.42,4.7-.09,0-.19,0-.29,0-.83,0-1.61-.22-2.29-.6-1.44-.8-2.41-2.34-2.41-4.11,0-2.6,2.1-4.71,4.71-4.71.1,0,.2,0,.29,0,1.64.1,3.06,1.04,3.82,2.4.38.68.6,1.46.6,2.29Z"/>
          <rect class="cls-1" x="187.6" y="103.47" width="5" height="9.41"/>
        </g>
        <g>
          <path class="cls-1" d="m197.01,132.5c0,2.5-1.95,4.55-4.42,4.7-.09,0-.19,0-.29,0-.07,0-.14,0-.2,0-1.8-.08-3.34-1.17-4.06-2.72-.29-.6-.44-1.28-.44-1.99,0-2.6,2.1-4.71,4.71-4.71.1,0,.2,0,.29,0,1.12.07,2.12.52,2.89,1.23h0c.55.5.98,1.14,1.24,1.85.19.5.29,1.04.29,1.61Z"/>
          <rect class="cls-1" x="187.6" y="127.79" width="5" height="9.41"/>
        </g>
        <g>
          <path class="cls-1" d="m197.01,120.43c0,2.5-1.95,4.55-4.42,4.7-.09,0-.19,0-.29,0-2.6,0-4.71-2.11-4.71-4.71s2.1-4.71,4.71-4.71c.1,0,.2,0,.29,0,2.46.15,4.42,2.2,4.42,4.7Z"/>
          <rect class="cls-1" x="187.6" y="115.72" width="5" height="9.41"/>
        </g>
        <g>
          <path class="cls-1" d="m197.01,144.57c0,.57-.1,1.13-.29,1.63-.63,1.71-2.22,2.95-4.12,3.07-.09,0-.19,0-.29,0-1.81,0-3.38-1.02-4.17-2.52-.1-.18-.18-.37-.25-.56-.19-.5-.29-1.05-.29-1.63,0-2.11,1.39-3.9,3.31-4.5.44-.14.91-.21,1.4-.21.1,0,.2,0,.29,0,2.46.15,4.42,2.2,4.42,4.7Z"/>
          <rect class="cls-1" x="187.6" y="139.87" width="5" height="9.41"/>
        </g>
        <g>
          <path class="cls-1" d="m197.01,156.81c0,.67-.14,1.31-.4,1.89-.69,1.58-2.22,2.7-4.02,2.81-.09,0-.19,0-.29,0-1.06,0-2.03-.35-2.81-.94-1.15-.85-1.89-2.22-1.89-3.77,0-.6.11-1.18.32-1.71.68-1.75,2.39-2.99,4.38-2.99.1,0,.2,0,.29,0,1.43.09,2.68.81,3.48,1.88.59.79.94,1.76.94,2.82Z"/>
          <rect class="cls-1" x="187.6" y="152.11" width="5" height="9.41"/>
        </g>
        <g>
          <path class="cls-1" d="m197.01,169.37c0,1.06-.35,2.03-.94,2.82-.8,1.07-2.05,1.79-3.47,1.88-.09,0-.19,0-.29,0-2,0-3.69-1.24-4.38-2.98-.21-.53-.33-1.12-.33-1.72,0-1.54.74-2.91,1.88-3.77.79-.59,1.76-.94,2.82-.94.1,0,.2,0,.29,0,1.81.11,3.34,1.24,4.02,2.82.25.57.39,1.21.39,1.88Z"/>
          <rect class="cls-1" x="187.6" y="164.66" width="5" height="9.41"/>
        </g>
        <g>
          <path class="cls-1" d="m197.01,182.08c0,2.6-2.11,4.71-4.71,4.71s-4.71-2.11-4.71-4.71,2.11-4.71,4.71-4.71,4.71,2.11,4.71,4.71Z"/>
          <rect class="cls-1" x="187.6" y="177.37" width="5" height="9.41"/>
        </g>
        <g>
          <path class="cls-1" d="m197.01,194.79c0,2.6-2.11,4.71-4.71,4.71s-4.71-2.11-4.71-4.71,2.11-4.71,4.71-4.71,4.71,2.11,4.71,4.71Z"/>
          <rect class="cls-1" x="187.6" y="190.08" width="5" height="9.41"/>
        </g>
        <g>
          <path class="cls-1" d="m197.01,207.58c0,2.6-2.11,4.71-4.71,4.71s-4.71-2.11-4.71-4.71,2.11-4.71,4.71-4.71,4.71,2.11,4.71,4.71Z"/>
          <rect class="cls-1" x="187.6" y="202.87" width="5" height="9.42"/>
        </g>
        <g>
          <path class="cls-1" d="m197.01,220.44c0,2.6-2.11,4.71-4.71,4.71s-4.71-2.11-4.71-4.71,2.11-4.71,4.71-4.71,4.71,2.11,4.71,4.71Z"/>
          <rect class="cls-1" x="187.6" y="215.73" width="5" height="9.41"/>
        </g>
        <g>
          <path class="cls-1" d="m137.64,95.46c0,2.6-2.11,4.71-4.71,4.71-.1,0-.2,0-.29,0-2.46-.15-4.42-2.2-4.42-4.7s1.95-4.55,4.42-4.7c.09,0,.19,0,.29,0,2.6,0,4.71,2.11,4.71,4.71Z"/>
          <rect class="cls-1" x="132.64" y="90.76" width="5" height="9.41"/>
        </g>
        <g>
          <path class="cls-1" d="m137.64,108.17c0,1.52-.72,2.88-1.85,3.74-.79.61-1.78.97-2.86.97-.1,0-.2,0-.29,0-2.46-.15-4.42-2.2-4.42-4.7,0-1.08.36-2.07.97-2.86.81-1.05,2.04-1.75,3.45-1.84.09,0,.19,0,.29,0,2.6,0,4.71,2.11,4.71,4.71Z"/>
          <rect class="cls-1" x="132.64" y="103.47" width="5" height="9.41"/>
        </g>
        <g>
          <path class="cls-1" d="m137.64,132.5c0,.58-.1,1.14-.3,1.65-.54,1.45-1.78,2.56-3.31,2.92-.35.09-.72.13-1.1.13-.1,0-.2,0-.29,0-2.46-.15-4.42-2.2-4.42-4.7,0-.7.15-1.36.42-1.95.39-.86,1.03-1.58,1.83-2.06.64-.4,1.37-.64,2.17-.69.09,0,.19,0,.29,0,2.6,0,4.71,2.1,4.71,4.71Z"/>
          <rect class="cls-1" x="132.64" y="127.79" width="5" height="9.41"/>
        </g>
        <g>
          <path class="cls-1" d="m137.64,120.43c0,2.6-2.11,4.71-4.71,4.71-.1,0-.2,0-.29,0-2.46-.15-4.42-2.2-4.42-4.7s1.95-4.55,4.42-4.7c.09,0,.19,0,.29,0,2.6,0,4.71,2.11,4.71,4.71Z"/>
          <rect class="cls-1" x="132.64" y="115.72" width="5" height="9.41"/>
        </g>
        <g>
          <path class="cls-1" d="m137.64,144.57c0,.33-.03.66-.1.97-.05.23-.11.45-.19.66-.66,1.8-2.39,3.08-4.41,3.08-.1,0-.2,0-.29,0-1.9-.12-3.5-1.36-4.12-3.07-.19-.5-.29-1.05-.29-1.63,0-2.5,1.95-4.55,4.42-4.7.09,0,.19,0,.29,0,.95,0,1.84.28,2.57.77h0c1.28.84,2.13,2.29,2.13,3.94Z"/>
          <rect class="cls-1" x="132.64" y="139.87" width="5" height="9.41"/>
        </g>
        <g>
          <path class="cls-1" d="m137.64,156.81c0,1.3-.53,2.48-1.38,3.33-.85.85-2.02,1.37-3.32,1.37-.1,0-.2,0-.29,0-1.68-.1-3.12-1.08-3.86-2.49-.35-.66-.55-1.41-.55-2.21,0-1.3.53-2.47,1.37-3.32.79-.79,1.85-1.3,3.04-1.37.09,0,.19,0,.29,0,2.12,0,3.91,1.4,4.5,3.33.14.43.21.89.21,1.37Z"/>
          <rect class="cls-1" x="132.64" y="152.11" width="5" height="9.41"/>
        </g>
        <g>
          <path class="cls-1" d="m137.64,169.37c0,.48-.07.95-.21,1.38-.59,1.92-2.38,3.32-4.5,3.32-.1,0-.2,0-.29,0-1.19-.07-2.25-.58-3.04-1.37-.85-.85-1.38-2.03-1.38-3.33,0-.8.2-1.54.55-2.2.74-1.41,2.18-2.39,3.86-2.49.09,0,.19,0,.29,0,1.3,0,2.48.53,3.33,1.38.85.85,1.38,2.03,1.38,3.33Z"/>
          <rect class="cls-1" x="132.64" y="164.66" width="5" height="9.41"/>
        </g>
        <g>
          <path class="cls-1" d="m128.23,182.08c0,2.6,2.11,4.71,4.71,4.71s4.71-2.11,4.71-4.71-2.11-4.71-4.71-4.71-4.71,2.11-4.71,4.71Z"/>
          <rect class="cls-1" x="132.64" y="177.37" width="5" height="9.41"/>
        </g>
        <g>
          <path class="cls-1" d="m128.23,194.79c0,2.6,2.11,4.71,4.71,4.71s4.71-2.11,4.71-4.71-2.11-4.71-4.71-4.71-4.71,2.11-4.71,4.71Z"/>
          <rect class="cls-1" x="132.64" y="190.08" width="5" height="9.41"/>
        </g>
        <g>
          <path class="cls-1" d="m128.23,207.58c0,2.6,2.11,4.71,4.71,4.71s4.71-2.11,4.71-4.71-2.11-4.71-4.71-4.71-4.71,2.11-4.71,4.71Z"/>
          <rect class="cls-1" x="132.64" y="202.87" width="5" height="9.42"/>
        </g>
        <g>
          <path class="cls-1" d="m128.23,220.44c0,2.6,2.11,4.71,4.71,4.71s4.71-2.11,4.71-4.71-2.11-4.71-4.71-4.71-4.71,2.11-4.71,4.71Z"/>
          <rect class="cls-1" x="132.64" y="215.73" width="5" height="9.41"/>
        </g>
      </g>
      <path class="cls-1" d="m543.77,187.48l-12.24-38.19h9.46l4.65,16.15c1.3,4.53,2.49,8.9,3.4,13.65h.17c.96-4.59,2.15-9.12,3.46-13.48l4.87-16.32h9.18l-12.86,38.19h-10.09Z"/>
    </g>
  </g>
</svg>